<svg width="104" height="83" viewBox="0 0 104 83" fill="none" xmlns="http://www.w3.org/2000/svg">
<path fill-rule="evenodd" clip-rule="evenodd" d="M0 57.2272C3.93247 57.5789 7.94825 57.7608 12.03 57.7608C36.6382 57.7608 58.8485 51.1516 74.8625 40.5449C90.7629 30.0134 100.409 15.6606 100.558 0H103.558C103.409 16.9793 92.959 32.1572 76.5191 43.046C59.9487 54.0213 37.144 60.7608 12.03 60.7608C7.95356 60.7608 3.93797 60.5832 0 60.2388V57.2272Z" fill="#36200C"/>
<circle cx="61.5" cy="51.5" r="30.5" fill="#FAEADA"/>
<path d="M48.8567 72.6035L47.8108 78.8983L43.7746 76.4624L48.8567 72.6035Z" fill="#36200C"/>
<path d="M52.3476 74.3553L52.3049 80.7363L47.9358 78.9656L52.3476 74.3553Z" fill="#36200C"/>
<path d="M56.0005 75.5153L56.9536 81.8249L52.3618 80.7573L56.0005 75.5153Z" fill="#36200C"/>
<path d="M59.8186 76.0951L61.7528 82.176L57.0502 81.8444L59.8186 76.0951Z" fill="#36200C"/>
<path d="M63.7212 76.0662L66.5882 81.7669L61.892 82.1795L63.7212 76.0662Z" fill="#36200C"/>
<path d="M67.5096 75.4345L71.2308 80.6182L66.6564 81.7583L67.5096 75.4345Z" fill="#36200C"/>
<path d="M71.2018 74.1996L75.692 78.7335L71.3539 80.5789L71.2018 74.1996Z" fill="#36200C"/>
<path d="M74.6106 72.4237L79.7532 76.2016L75.7561 78.7012L74.6106 72.4237Z" fill="#36200C"/>
<path d="M43.0346 67.6972L40.1025 73.3648L37.0117 69.805L43.0346 67.6972Z" fill="#36200C"/>
<path d="M45.7448 70.3692L43.7297 76.4238L40.123 73.3881L45.7448 70.3692Z" fill="#36200C"/>
<path d="M77.7486 70.0957L83.4244 73.0119L79.8734 76.1127L77.7486 70.0957Z" fill="#36200C"/>
<path d="M80.4524 67.3309L86.5152 69.3211L83.4943 72.9403L80.4524 67.3309Z" fill="#36200C"/>
<path d="M82.6807 64.1894L88.9797 65.2096L86.5603 69.2557L82.6807 64.1894Z" fill="#36200C"/>
<path d="M84.3927 60.7337L90.7738 60.758L89.0157 65.1322L84.3927 60.7337Z" fill="#36200C"/>
<path d="M85.5524 57.0099L91.8567 56.0228L90.8139 60.6203L85.5524 57.0099Z" fill="#36200C"/>
<path d="M86.1056 53.1915L92.1777 51.2299L91.8674 55.9339L86.1056 53.1915Z" fill="#36200C"/>
<path d="M86.0541 49.3342L91.7461 46.4498L92.173 51.1447L86.0541 49.3342Z" fill="#36200C"/>
<path d="M85.3995 45.5313L90.5707 41.7926L91.7262 46.3631L85.3995 45.5313Z" fill="#36200C"/>
<path d="M84.1452 41.8496L88.6584 37.3385L90.5237 41.6681L84.1452 41.8496Z" fill="#36200C"/>
<path d="M82.343 38.4393L86.0959 33.2784L88.6149 37.2633L82.343 38.4393Z" fill="#36200C"/>
<path d="M80.0282 35.3517L82.9305 29.6688L86.04 33.2122L80.0282 35.3517Z" fill="#36200C"/>
<path d="M77.2622 32.6679L79.2389 26.6007L82.8648 29.6135L77.2622 32.6679Z" fill="#36200C"/>
<path d="M74.0829 30.433L75.0734 24.1292L79.1309 26.5296L74.0829 30.433Z" fill="#36200C"/>
<path d="M70.6196 28.7389L70.6142 22.3578L74.9965 24.0955L70.6196 28.7389Z" fill="#36200C"/>
<path d="M66.9365 27.6078L65.9268 21.307L70.528 22.3334L66.9365 27.6078Z" fill="#36200C"/>
<path d="M63.0876 27.0643L61.1019 21L65.8072 21.2918L63.0876 27.0643Z" fill="#36200C"/>
<path d="M59.2342 27.1315L56.3224 21.4534L61.0153 21.0039L59.2342 27.1315Z" fill="#36200C"/>
<path d="M55.4446 27.7987L51.683 22.6443L56.2483 21.4684L55.4446 27.7987Z" fill="#36200C"/>
<path d="M51.7877 29.0573L47.261 24.5598L51.5841 22.6795L51.7877 29.0573Z" fill="#36200C"/>
<path d="M48.367 30.8785L43.19 27.1478L47.1641 24.6118L48.367 30.8785Z" fill="#36200C"/>
<path d="M45.2925 33.1994L39.5956 30.3247L43.1239 27.1981L45.2925 33.1994Z" fill="#36200C"/>
<path d="M42.6284 35.9604L36.5529 34.009L39.5506 30.3705L42.6284 35.9604Z" fill="#36200C"/>
<path d="M40.4217 39.1103L34.1159 38.1328L36.5078 34.0704L40.4217 39.1103Z" fill="#36200C"/>
<path d="M38.71 42.6272L32.3289 42.6616L34.0467 38.2715L38.71 42.6272Z" fill="#36200C"/>
<path d="M37.5923 46.3048L31.295 47.3357L32.3058 42.731L37.5923 46.3048Z" fill="#36200C"/>
<path d="M37.0627 50.0972L31.0031 52.0975L31.2836 47.3915L37.0627 50.0972Z" fill="#36200C"/>
<path d="M37.1316 53.9559L31.4601 56.8804L31.0001 52.1886L37.1316 53.9559Z" fill="#36200C"/>
<path d="M37.8184 57.8118L32.6817 61.5977L31.4844 57.038L37.8184 57.8118Z" fill="#36200C"/>
<path d="M39.076 61.4336L34.5931 65.9748L32.6988 61.6578L39.076 61.4336Z" fill="#36200C"/>
<path d="M40.9215 64.8782L37.2092 70.0683L34.6591 66.1032L40.9215 64.8782Z" fill="#36200C"/>
<circle cx="62" cy="51" r="17" fill="#36200C"/>
<circle cx="62" cy="51" r="14.5" stroke="#FAEADA"/>
<path d="M63.8473 53.3335C60.5543 55.0741 57.1669 48.89 60.4597 47.1491C63.7525 45.4082 75.4644 42.3159 75.4644 42.3159C75.4644 42.3159 67.1403 51.593 63.8473 53.3335Z" fill="#FAEADA"/>
<circle cx="63.5009" cy="49.6379" r="1.06389" transform="rotate(49.0336 63.5009 49.6379)" fill="#36200C"/>
<circle cx="61.5" cy="51.5" r="30.75" stroke="#36200C" stroke-width="1.5"/>
</svg>
