<svg width="459" height="80" viewBox="0 0 459 80" fill="none" xmlns="http://www.w3.org/2000/svg">
    <path d="M212 72.8959L214.917 72.1275L215.65 74.8109L212.751 75.5793L212 72.8959ZM217.449 72.9063L220.367 72.1379L221.099 74.8213L218.2 75.5897L217.449 72.9063ZM222.898 72.9167L225.816 72.1483L226.549 74.8317L223.649 75.6002L222.898 72.9167ZM235.231 79.1504C233.851 79.1477 232.807 78.9297 232.1 78.4964C231.405 78.063 231.058 77.4264 231.059 76.5864C231.061 75.6984 231.471 74.9192 232.288 74.2487C232.036 73.9962 231.911 73.72 231.912 73.42C231.912 72.988 232.196 72.3765 232.761 71.5856C231.778 71.0677 231.288 70.1788 231.29 68.9188C231.292 67.8148 231.666 66.9635 232.411 66.3649C233.168 65.7544 234.255 65.4505 235.671 65.4532C236.667 65.4551 237.482 65.6067 238.118 65.9079L240.279 65.246L241.125 65.2476L241.12 67.8576L239.716 67.8549C239.776 68.155 239.805 68.4491 239.804 68.7371C239.802 69.8411 239.429 70.6804 238.684 71.255C237.939 71.8295 236.846 72.1154 235.406 72.1127C234.914 72.1117 234.47 72.0749 234.074 72.0021L234.074 72.2541C234.073 72.4461 234.151 72.5843 234.307 72.6686C234.475 72.7409 234.829 72.8136 235.369 72.8866L236.988 73.1237C238.26 73.3062 239.135 73.6198 239.614 74.0648C240.105 74.5097 240.35 75.0802 240.349 75.7762C240.347 76.8562 239.901 77.6893 239.012 78.2756C238.123 78.8619 236.863 79.1535 235.231 79.1504ZM235.679 70.3492C235.931 70.3497 236.219 70.3142 236.544 70.2429C236.592 70.099 236.634 69.883 236.671 69.5951C236.719 69.3072 236.744 69.0432 236.744 68.8032C236.745 68.2632 236.626 67.861 236.387 67.5966C236.159 67.3321 235.799 67.1994 235.307 67.1985C235.067 67.198 234.803 67.2335 234.515 67.305C234.455 67.4489 234.401 67.6588 234.352 67.9347C234.315 68.2106 234.297 68.4746 234.297 68.7266C234.295 69.2786 234.409 69.6868 234.636 69.9512C234.864 70.2156 235.211 70.3483 235.679 70.3492ZM236.062 77.118C236.614 77.119 237.035 77.0718 237.323 76.9764C237.395 76.8325 237.431 76.6406 237.432 76.4006C237.432 76.1126 237.331 75.8904 237.127 75.734C236.923 75.5896 236.558 75.4809 236.03 75.4079L235.454 75.3168C234.926 75.2558 234.392 75.1708 233.852 75.0617C233.78 75.3856 233.743 75.6435 233.743 75.8355C233.742 76.2675 233.933 76.5859 234.317 76.7906C234.701 77.0073 235.282 77.1165 236.062 77.118ZM246.169 75.3013C244.645 75.2984 243.505 74.9062 242.751 74.1248C242.008 73.3433 241.639 72.1486 241.642 70.5406C241.644 69.5086 241.832 68.609 242.205 67.8417C242.59 67.0744 243.138 66.4875 243.846 66.0808C244.555 65.6742 245.39 65.4718 246.35 65.4736C249.458 65.4796 251.008 67.0906 251.002 70.3066C250.999 71.8786 250.571 73.1077 249.717 73.9941C248.876 74.8685 247.693 75.3042 246.169 75.3013ZM246.461 73.1959C246.701 73.1963 246.911 73.1787 247.091 73.1431C247.271 73.0954 247.463 73.0238 247.667 72.9282C247.74 72.6523 247.8 72.2984 247.849 71.8665C247.898 71.4346 247.923 71.0207 247.924 70.6247C247.926 69.6527 247.771 68.9144 247.46 68.4098C247.161 67.9052 246.711 67.6523 246.111 67.6512C245.715 67.6504 245.313 67.7037 244.905 67.8109C244.821 67.9907 244.754 68.2846 244.705 68.6925C244.657 69.0884 244.632 69.5444 244.631 70.0604C244.629 71.0683 244.783 71.8426 245.094 72.3832C245.417 72.9239 245.873 73.1947 246.461 73.1959ZM256.642 75.3034C255.238 75.3007 254.153 74.8726 253.386 74.0191C252.632 73.1657 252.256 71.989 252.259 70.489C252.261 69.445 252.449 68.5513 252.822 67.808C253.196 67.0527 253.725 66.4778 254.41 66.0831C255.094 65.6884 255.893 65.4919 256.805 65.4937C258.161 65.4963 259.198 65.9302 259.916 66.7956C260.647 67.661 260.992 68.8917 260.953 70.4876L255.479 71.4851C255.646 71.9894 255.88 72.3619 256.179 72.6025C256.491 72.8311 256.898 72.9458 257.402 72.9468C257.75 72.9475 258.165 72.9003 258.645 72.8052C259.125 72.6981 259.611 72.555 260.104 72.376L260.514 74.1588C260.069 74.4939 259.493 74.7688 258.785 74.9835C258.076 75.1981 257.362 75.3047 256.642 75.3034ZM258.004 68.97C257.981 68.5139 257.85 68.1837 257.61 67.9792C257.382 67.7628 257.059 67.6541 256.639 67.6533C256.291 67.6527 255.96 67.7 255.648 67.7954C255.395 68.383 255.28 69.0187 255.303 69.7028L258.004 68.97ZM265.305 75.41C264.357 75.4081 263.259 75.238 262.012 74.8996C262.086 73.7238 262.166 72.8539 262.251 72.2901L263.277 72.0941L264.409 73.3022C264.805 73.423 265.249 73.4838 265.741 73.4848C266.017 73.4853 266.233 73.4677 266.389 73.432C266.425 73.3361 266.443 73.2041 266.444 73.0361C266.444 72.8921 266.408 72.7721 266.336 72.6759C266.277 72.5798 266.133 72.4655 265.905 72.3331C265.677 72.2007 265.282 71.9959 264.718 71.7188C264.011 71.3455 263.471 71.0144 263.1 70.7257C262.729 70.425 262.459 70.1185 262.292 69.8062C262.136 69.4939 262.059 69.1217 262.06 68.6897C262.062 67.7297 262.417 66.9684 263.126 66.4058C263.847 65.8431 264.82 65.563 266.044 65.5653C266.548 65.5663 267.076 65.6273 267.628 65.7484C268.191 65.8575 268.695 66.0084 269.139 66.2013C269.137 66.9813 269.082 67.8512 268.972 68.811L268.035 68.9532L266.832 67.6549C266.52 67.5583 266.064 67.5094 265.464 67.5082C265.368 67.5081 265.176 67.5197 264.888 67.5431C264.852 67.6151 264.834 67.729 264.833 67.885C264.833 68.053 264.881 68.2031 264.977 68.3353C265.072 68.4555 265.24 68.5938 265.48 68.7503C265.732 68.8948 266.127 69.1055 266.667 69.3825C267.458 69.7681 268.051 70.1052 268.447 70.394C268.854 70.6707 269.136 70.9533 269.291 71.2416C269.459 71.5299 269.542 71.8781 269.541 72.2861C269.539 73.2701 269.16 74.0373 268.403 74.5879C267.658 75.1385 266.625 75.4125 265.305 75.41ZM277.851 75.182C276.555 75.1795 275.362 75.1232 274.27 75.0131L274.183 73.285L275.498 72.9275L275.511 66.0695C275.511 65.7575 275.488 65.5534 275.44 65.4573C275.392 65.3493 275.266 65.253 275.063 65.1686L274.128 64.6448L274.238 63.151C275.487 63.0574 276.537 62.9874 277.389 62.9411C278.241 62.8827 278.925 62.854 279.441 62.855C281.097 62.8582 282.423 63.0527 283.418 63.4386C284.425 63.8245 285.156 64.4319 285.61 65.2608C286.077 66.0897 286.309 67.1882 286.306 68.5562C286.303 70.2842 285.904 71.6814 285.11 72.7479C284.4 73.6705 283.457 74.3107 282.28 74.6685C281.116 75.0142 279.639 75.1854 277.851 75.182ZM280.124 72.6123C281.132 72.6143 281.931 72.4958 282.519 72.2569C282.628 71.9571 282.724 71.4893 282.81 70.8535C282.907 70.2177 282.956 69.6237 282.957 69.0717C282.96 67.7157 282.68 66.7132 282.117 66.0641C281.566 65.4151 280.721 65.0895 279.581 65.0873C279.425 65.087 279.281 65.0927 279.149 65.1044C279.017 65.1162 278.891 65.128 278.771 65.1397L278.756 72.5197C279.236 72.5806 279.692 72.6115 280.124 72.6123ZM291.319 75.4058C290.359 75.4039 289.645 75.1206 289.178 74.5557C288.711 73.9788 288.479 73.1143 288.481 71.9623L288.487 68.7403C288.488 68.4763 288.464 68.3083 288.416 68.2362C288.381 68.1521 288.279 68.0619 288.111 67.9656L287.302 67.5321L287.394 66.1822C287.562 66.1586 287.682 66.1348 287.754 66.1109C287.886 66.0872 288.355 66.0041 289.159 65.8616C289.975 65.7192 290.653 65.6365 291.193 65.6135C291.325 65.9138 291.426 66.262 291.497 66.6581L291.489 71.1941C291.488 71.7221 291.499 72.0941 291.523 72.3102C291.558 72.5262 291.654 72.6944 291.81 72.8147C291.977 72.923 292.259 72.9776 292.655 72.9783C293.231 72.9794 293.789 72.8785 294.33 72.6755L294.337 68.7515C294.338 68.4875 294.32 68.3195 294.284 68.2474C294.249 68.1634 294.153 68.0732 293.997 67.9769L293.206 67.5434L293.28 66.1935C294.253 66.0154 295.009 65.8788 295.549 65.7839C296.101 65.6889 296.605 65.6359 297.061 65.6247C297.193 65.925 297.294 66.2732 297.365 66.6693L297.354 72.5733C297.354 72.7893 297.371 72.9394 297.407 73.0234C297.443 73.1075 297.527 73.1917 297.659 73.2759L298.378 73.6913L298.322 74.8072C297.806 74.9382 297.211 75.0571 296.539 75.1638C295.867 75.2585 295.243 75.3173 294.667 75.3402C294.619 75.1961 294.565 75.016 294.506 74.7999C294.494 74.7038 294.464 74.5898 294.416 74.4577L294.362 74.4576C293.87 74.7447 293.347 74.9777 292.795 75.1566C292.255 75.3236 291.763 75.4066 291.319 75.4058ZM303.362 75.3928C302.702 75.3916 302.042 75.3183 301.382 75.173C300.723 75.0398 300.111 74.8586 299.547 74.6295L299.567 64.5135C299.567 64.2495 299.55 64.0815 299.514 64.0094C299.478 63.9254 299.382 63.8352 299.226 63.7389L298.381 63.3233L298.474 61.9554C299.59 61.7656 300.436 61.6292 301.012 61.5463C301.589 61.4634 302.039 61.4163 302.363 61.4049C302.482 61.6571 302.566 61.9693 302.613 62.3414L302.606 65.9414C303.291 65.7027 303.969 65.584 304.641 65.5853C305.901 65.5877 306.884 65.9916 307.59 66.7969C308.309 67.5903 308.667 68.731 308.664 70.219C308.661 71.863 308.202 73.1401 307.289 74.0504C306.387 74.9486 305.078 75.3961 303.362 75.3928ZM303.996 73.072C304.56 73.0731 304.981 73.0139 305.257 72.8945C305.353 72.5706 305.432 72.1928 305.493 71.7609C305.554 71.329 305.585 70.9091 305.585 70.5011C305.589 68.6531 304.973 67.7279 303.737 67.7255C303.425 67.7249 303.047 67.7782 302.602 67.8854L302.593 72.8354C302.905 72.992 303.372 73.0708 303.996 73.072ZM312.221 75.4278C311.405 75.4262 310.752 75.203 310.261 74.758C309.77 74.3011 309.525 73.7186 309.526 73.0106C309.528 72.0626 310.003 71.3195 310.952 70.7814C311.913 70.2432 313.306 69.9399 315.13 69.8714C315.131 69.3074 315.084 68.8933 314.988 68.6291C314.905 68.3529 314.743 68.1666 314.504 68.0702C314.276 67.9617 313.922 67.907 313.442 67.9061C312.95 67.9052 312.602 67.9225 312.398 67.9581L311.657 69.4147L310.325 69.3222C310.123 68.3618 309.981 67.3655 309.899 66.3333C310.571 66.1066 311.304 65.928 312.096 65.7975C312.9 65.6671 313.65 65.6025 314.346 65.6039C315.618 65.6063 316.53 65.86 317.081 66.3651C317.632 66.8581 317.906 67.6807 317.904 68.8327L317.897 72.5947C317.896 72.8107 317.914 72.9607 317.95 73.0448C317.998 73.1289 318.094 73.213 318.238 73.2973L318.957 73.7127L318.883 74.8286C317.49 75.1499 316.392 75.3278 315.588 75.3622C315.564 75.2902 315.528 75.1641 315.48 74.984C315.433 74.7919 315.391 74.6119 315.355 74.4438C314.887 74.7429 314.37 74.9819 313.806 75.1608C313.254 75.3398 312.725 75.4288 312.221 75.4278ZM313.431 73.3961C313.911 73.397 314.494 73.2361 315.178 72.9135L315.109 71.5453C314.821 71.5208 314.629 71.5084 314.533 71.5082C314.209 71.5076 313.831 71.5429 313.399 71.614C312.967 71.6732 312.624 71.7446 312.372 71.8281C312.336 71.984 312.318 72.128 312.317 72.26C312.317 72.62 312.412 72.9022 312.604 73.1065C312.808 73.2989 313.083 73.3954 313.431 73.3961ZM320.36 61.8894L323.422 61.0852L324.154 63.8226L321.111 64.6448L320.36 61.8894ZM319.582 73.5519L320.843 73.1763L320.851 68.8023C320.851 68.5383 320.828 68.3703 320.78 68.2982C320.744 68.2141 320.642 68.1239 320.474 68.0276L319.683 67.5941L319.776 66.2442C320.772 66.0542 321.54 65.9176 322.081 65.8347C322.633 65.7397 323.137 65.6867 323.593 65.6756C323.748 66.1919 323.843 66.576 323.879 66.8281L323.868 72.5881C323.867 72.8401 323.885 73.0081 323.921 73.0922C323.957 73.1763 324.058 73.2665 324.226 73.3628L325.107 73.8685L325.033 75.2183L319.633 75.208L319.582 73.5519Z" fill="#36200C"/>
    <mask id="mask0_65_2011" style="mask-type:alpha" maskUnits="userSpaceOnUse" x="0" y="0" width="73" height="75">
        <rect width="73" height="75" fill="#C4C4C4"/>
    </mask>
    <g mask="url(#mask0_65_2011)">
        <mask id="mask1_65_2011" style="mask-type:alpha" maskUnits="userSpaceOnUse" x="0" y="0" width="549" height="75">
            <path d="M0 75V0H549V75H473V19H73V75H0Z" fill="#FAEADA"/>
        </mask>
        <g mask="url(#mask1_65_2011)">
            <rect x="24.5" y="-8.5" width="496" height="54" stroke="#36200C" stroke-width="3"/>
            <rect x="29" y="-4" width="487" height="45" stroke="#36200C" stroke-width="2"/>
            <path d="M23.1657 45.8958C23.1719 45.8941 23.1781 45.8924 23.1843 45.8907C23.2422 46.924 23.2913 48.3167 23.266 49.814C23.2401 51.3487 23.1365 52.9601 22.895 54.3931C22.6473 55.8623 22.2797 56.9822 21.8261 57.6542C20.8066 59.1643 19.4583 59.865 18.0472 60.0057C16.5969 60.1503 14.9876 59.7074 13.5543 58.7398C12.1322 57.7798 11.3323 56.609 11.0829 55.4013C10.8355 54.2035 11.085 52.7547 12.1755 51.1393C12.6066 50.5008 13.5161 49.7761 14.8529 49.0396C16.1506 48.3246 17.6899 47.6843 19.1921 47.1454C20.6881 46.6087 22.1127 46.1848 23.1657 45.8958Z" stroke="#36200C" stroke-width="3"/>
        </g>
    </g>
    <mask id="mask2_65_2011" style="mask-type:alpha" maskUnits="userSpaceOnUse" x="386" y="0" width="73" height="75">
        <rect width="73" height="75" transform="matrix(-1 0 0 1 459 0)" fill="#C4C4C4"/>
    </mask>
    <g mask="url(#mask2_65_2011)">
        <mask id="mask3_65_2011" style="mask-type:alpha" maskUnits="userSpaceOnUse" x="-90" y="0" width="549" height="75">
            <path d="M459 75V0H-90V75H-14V19H386V75H459Z" fill="#FAEADA"/>
        </mask>
        <g mask="url(#mask3_65_2011)">
            <rect x="-1.5" y="1.5" width="496" height="54" transform="matrix(-1 0 0 1 433 -10)" stroke="#36200C" stroke-width="3"/>
            <rect x="-1" y="1" width="487" height="45" transform="matrix(-1 0 0 1 429 -5)" stroke="#36200C" stroke-width="2"/>
            <path d="M435.834 45.8958C435.828 45.8941 435.822 45.8924 435.816 45.8907C435.758 46.924 435.709 48.3167 435.734 49.814C435.76 51.3487 435.863 52.9601 436.105 54.3931C436.353 55.8623 436.72 56.9822 437.174 57.6542C438.193 59.1643 439.542 59.865 440.953 60.0057C442.403 60.1503 444.012 59.7074 445.446 58.7398C446.868 57.7798 447.668 56.609 447.917 55.4013C448.165 54.2035 447.915 52.7547 446.825 51.1393C446.393 50.5008 445.484 49.7761 444.147 49.0396C442.849 48.3246 441.31 47.6843 439.808 47.1454C438.312 46.6087 436.887 46.1848 435.834 45.8958Z" stroke="#36200C" stroke-width="3"/>
        </g>
    </g>
    <path d="M208.464 53.1759C211.707 53.1759 215.49 52.3618 216.571 38.2513C216.841 33.6382 217.381 24.4121 213.058 20.6131C210.085 17.8995 204.141 16 198.736 16C179.821 16 173.606 23.8693 171.174 46.1206C169.553 60.5025 178.47 64.3015 181.712 64.8442C185.766 65.6583 189.819 65.1156 194.143 64.8442C196.304 64.5729 201.168 64.0302 201.168 64.0302L200.628 70C202.79 69.7286 211.166 67.2864 216.03 52.6332C213.868 56.1608 210.896 56.7035 207.924 56.7035C202.79 56.7035 200.087 53.1759 200.628 48.8342V48.5628L202.249 33.3668L197.655 33.6382V29.8392H203.06C203.06 28.7538 203.33 27.397 203.33 26.5829C203.33 25.4975 203.6 24.4121 203.6 23.3266V22.5126H207.924L207.113 29.8392H212.247V30.1106C212.247 30.6533 212.247 31.196 211.977 31.7387C211.977 32.0101 211.977 32.5528 211.707 32.8241V33.3668H206.302C205.492 40.1508 204.951 46.6633 204.681 47.4774C204.681 52.3618 206.302 53.1759 208.464 53.1759ZM195.223 36.3518L193.062 56.4322H189.819V54.2613C187.117 55.6181 183.604 56.9749 181.172 56.9749C176.308 56.9749 175.227 53.1759 175.768 48.2915C176.308 42.3216 180.091 41.5075 184.955 41.2362H190.63L191.17 36.3518C191.44 33.0955 190.089 32.8241 187.117 32.8241C184.144 32.8241 180.632 33.3668 179.01 33.6382C179.01 33.3668 178.74 30.3819 178.74 30.1106C181.983 29.5678 185.225 29.0251 187.927 29.0251C193.602 29.0251 196.034 30.1106 195.223 36.3518ZM163.878 29.0251C162.797 29.0251 159.284 29.2965 157.123 29.8392L158.203 18.7136H154.15L150.097 56.4322V56.7035H150.367C153.069 56.9749 156.582 57.2462 159.014 57.2462C164.148 57.2462 166.85 55.3467 168.202 51.8191C167.931 49.1055 168.202 46.1206 168.472 43.407C168.742 39.608 169.553 36.6231 170.363 33.3668C170.363 33.3668 169.823 31.7387 169.012 30.9246C167.661 29.8392 166.04 29.0251 163.878 29.0251ZM165.77 41.2362C164.959 49.3769 164.419 52.9045 159.284 52.9045H154.961L157.123 33.9095C158.744 33.3668 161.446 33.0955 163.338 33.0955C164.419 33.0955 165.229 33.3668 165.77 33.9095C166.31 35.2663 166.04 37.9799 165.77 41.2362ZM226.299 51.5477L222.245 29.8392V29.5678H220.083V39.8794L223.326 56.4322V56.7035H228.73L240.08 29.5678H235.216L226.299 51.5477ZM114.158 50.191L110.915 29.5678H106.051L98.215 50.191L96.3235 29.8392V29.5678H92L94.7022 56.7035H100.107L107.673 35.809L110.915 56.4322V56.7035H116.32L124.696 29.5678H120.373C120.643 29.5678 114.158 50.191 114.158 50.191ZM138.207 29.0251C129.831 29.0251 128.209 32.0101 127.128 43.1357C126.588 49.1055 126.318 53.1759 128.209 55.3467C129.29 56.7035 131.182 57.2462 134.424 57.2462C137.126 57.2462 140.099 56.9749 143.341 56.4322H143.612L143.882 52.9045H143.612C140.91 53.1759 138.207 53.4472 136.856 53.4472C134.965 53.4472 131.992 53.4472 131.452 51.8191C130.641 50.191 130.911 48.5628 131.182 44.7638H146.314V43.407C147.125 37.4372 147.125 33.3668 145.233 31.196C143.882 29.5678 141.99 29.0251 138.207 29.0251ZM142.531 40.6935H131.452V40.4221C132.533 34.7236 132.803 32.8241 137.937 32.8241C140.099 32.8241 141.18 33.0955 141.72 33.9095C142.801 34.7236 142.801 36.8945 142.531 40.6935ZM252.78 29.0251C249.807 29.0251 246.835 29.2965 243.322 30.1106H243.052V34.1809H243.863C245.484 33.9095 248.727 33.3668 251.159 33.3668C252.78 33.3668 253.861 33.3668 254.401 34.1809C254.942 34.7236 254.942 35.5377 254.942 36.6231L254.401 41.5075H248.727C244.944 41.2362 240.62 42.0503 239.809 48.2915C239.539 51.5477 239.809 53.99 241.161 55.6181C242.241 56.7035 243.592 57.2462 245.214 57.2462C247.916 57.2462 251.429 55.6181 253.591 54.5327V56.7035H257.374L259.535 36.3518C259.806 33.6382 259.535 31.7387 258.454 30.3819C257.644 29.5678 256.023 29.0251 252.78 29.0251ZM253.861 50.7337C253.32 51.005 252.78 51.005 252.239 51.2764C250.348 52.0905 247.646 53.1759 246.295 53.1759C245.484 53.1759 244.944 52.9045 244.403 52.6332C243.863 52.0905 243.592 50.7337 243.863 48.8342C244.133 45.0352 246.295 45.0352 254.401 45.0352L253.861 50.7337ZM279.532 29.2965C276.829 29.2965 273.857 30.1106 270.344 31.4673V29.5678H266.831L263.859 56.7035H268.182L270.344 35.2663C273.316 33.9095 276.829 33.3668 278.721 33.3668C279.261 33.3668 279.802 33.6382 280.072 33.9095C280.342 34.1809 280.612 34.7236 280.612 35.5377L278.18 56.4322V56.7035H282.504L284.936 35.809C285.206 33.6382 284.936 31.7387 283.855 30.6533C282.774 29.8392 281.423 29.2965 279.532 29.2965ZM300.068 22.7839H296.015V23.0553C296.015 24.1407 295.745 25.2261 295.745 26.0402C295.745 27.1256 295.474 28.4824 295.204 29.5678H289.53V29.8392C289.53 30.3819 289.53 30.6533 289.259 31.196V33.3668H294.664L293.313 46.1206C293.042 47.7487 293.042 49.3769 293.042 51.005C293.042 54.2613 293.853 57.5176 299.528 57.5176C300.068 57.5176 301.149 57.5176 302.5 57.2462H302.77V56.9749C302.77 56.4322 302.77 55.8894 303.041 55.6181C303.041 55.0754 303.04 54.804 303.311 54.2613V53.99H300.338C298.447 53.99 297.366 53.4472 297.366 50.4623C297.366 49.9196 297.366 49.1055 298.987 33.6382H304.662V33.3668C304.662 32.8241 304.662 32.5528 304.932 32.0101C304.932 31.4673 305.202 30.9246 305.202 30.1106V29.5678H299.528L300.068 22.7839ZM319.524 29.0251C316.551 29.0251 313.579 29.2965 310.066 30.1106H309.796V34.1809H310.607C312.228 33.9095 315.471 33.3668 317.902 33.3668C319.524 33.3668 320.605 33.3668 321.145 34.1809C321.686 34.7236 321.686 35.5377 321.686 36.6231V41.2362H316.011C311.687 41.5075 307.094 42.0503 306.553 48.5628C306.283 51.8191 306.553 54.2613 307.904 55.8894C308.985 56.9749 310.336 57.5176 311.958 57.5176C314.66 57.5176 318.173 55.8894 320.334 54.804V56.9749H324.388L326.55 36.6231C326.82 33.9095 326.55 32.0101 325.469 30.6533C324.388 29.5678 322.766 29.0251 319.524 29.0251ZM320.605 50.7337C320.064 51.005 319.524 51.005 318.983 51.2764C317.092 52.0905 314.39 53.1759 313.039 53.1759C312.228 53.1759 311.687 52.9045 311.147 52.6332C310.607 52.0905 310.336 50.7337 310.607 48.8342C310.877 45.0352 313.039 45.0352 321.145 45.0352L320.605 50.7337ZM331.684 38.2513C331.413 41.5075 331.413 44.2211 333.305 45.5779C332.494 46.6633 332.224 47.7487 332.224 48.5628C331.954 50.4623 332.494 52.0905 333.305 53.1759C334.386 54.2613 336.007 54.804 338.709 54.804H343.033C344.384 54.804 346.005 54.804 346.816 55.8894C347.356 56.4322 347.356 57.2462 347.356 58.0603C347.086 61.3166 345.735 62.6734 341.952 62.6734C337.628 62.6734 332.494 62.1307 332.494 62.1307H332.224L331.684 66.201H332.765C334.656 66.201 337.628 66.4724 341.682 66.4724C345.735 66.4724 350.599 64.8442 351.41 57.5176C351.68 55.3467 351.139 53.7186 350.329 52.3618C348.707 50.4623 345.465 50.191 343.033 50.191H339.25C337.628 50.191 337.088 50.191 336.818 49.6482C336.548 49.3769 336.548 48.8342 336.548 47.7487C336.548 46.9347 336.818 46.6633 337.899 46.6633H343.573C348.707 46.6633 351.139 43.9498 351.95 37.7085C352.22 35.2663 352.22 33.6382 351.68 32.2814C351.95 32.2814 352.49 32.2814 352.761 32.0101C353.301 32.0101 353.842 32.0101 354.382 31.7387H354.652L354.382 29.2965H341.141C334.656 29.2965 332.494 31.4673 331.684 38.2513ZM346.816 33.9095C347.356 34.4523 347.627 35.809 347.356 37.9799C346.816 42.0503 345.735 43.6784 342.222 43.6784H340.601C338.169 43.6784 336.548 43.407 336.007 42.593C335.467 41.7789 335.196 40.6935 335.467 38.2513C336.007 33.6382 337.088 33.0955 340.871 33.0955H343.303C344.924 33.0955 346.275 33.0955 346.816 33.9095ZM375.459 30.9246C374.108 29.5678 371.946 28.7538 368.433 28.7538C360.057 28.7538 358.435 32.0101 357.084 42.8643C356.544 48.8342 356.274 52.9045 358.165 55.0754C359.246 56.4322 361.137 56.9749 364.38 56.9749C367.082 56.9749 370.055 56.7035 373.297 56.1608H373.567L373.838 52.6332H373.567C370.865 52.9045 368.163 53.1759 366.812 53.1759C364.92 53.1759 361.948 53.1759 361.408 51.5477C360.597 49.9196 360.867 48.2915 361.137 44.4925H376.27V43.1357C377.351 37.1658 377.351 33.0955 375.459 30.9246ZM372.757 40.9648H361.678V40.6935C362.489 34.995 362.759 32.8241 367.893 32.8241C370.055 32.8241 371.136 33.0955 371.676 33.9095C373.027 34.7236 373.027 36.8945 372.757 40.9648ZM179.551 48.2915C179.281 51.005 179.551 52.9045 181.983 52.9045C184.144 52.9045 187.928 51.005 189.819 50.4623L190.63 44.2211C182.253 44.2211 180.091 44.4925 179.551 48.2915Z" fill="#36200C"/>
</svg>
