<svg width="73" height="75" viewBox="0 0 73 75" fill="none" xmlns="http://www.w3.org/2000/svg">
<mask id="mask0_226_212" style="mask-type:alpha" maskUnits="userSpaceOnUse" x="0" y="0" width="73" height="75">
<rect width="73" height="75" fill="#C4C4C4"/>
</mask>
<g mask="url(#mask0_226_212)">
<mask id="mask1_226_212" style="mask-type:alpha" maskUnits="userSpaceOnUse" x="0" y="0" width="549" height="75">
<path d="M0 75V0H549V75H473V19H73V75H0Z" fill="#FAEADA"/>
</mask>
<g mask="url(#mask1_226_212)">
<rect x="24.5" y="-8.5" width="496" height="54" stroke="#36200C" stroke-width="3"/>
<rect x="29" y="-4" width="487" height="45" stroke="#36200C" stroke-width="2"/>
<path d="M23.1657 45.8958C23.1719 45.8941 23.1781 45.8924 23.1843 45.8907C23.2422 46.924 23.2913 48.3167 23.266 49.814C23.2401 51.3487 23.1365 52.9601 22.895 54.3931C22.6473 55.8623 22.2797 56.9822 21.8261 57.6542C20.8066 59.1643 19.4583 59.865 18.0472 60.0057C16.5969 60.1503 14.9876 59.7074 13.5543 58.7398C12.1322 57.7798 11.3323 56.609 11.0829 55.4013C10.8355 54.2035 11.085 52.7547 12.1755 51.1393C12.6066 50.5008 13.5161 49.7761 14.8529 49.0396C16.1506 48.3246 17.6899 47.6843 19.1921 47.1454C20.6881 46.6087 22.1127 46.1848 23.1657 45.8958Z" stroke="#36200C" stroke-width="3"/>
</g>
</g>
</svg>
