<svg width="104" height="83" viewBox="0 0 104 83" fill="none" xmlns="http://www.w3.org/2000/svg">
    <mask id="mask0_238_65" style="mask-type:alpha" maskUnits="userSpaceOnUse" x="0" y="0" width="104" height="83">
        <rect width="104" height="83" fill="#C4C4C4"/>
    </mask>
    <g mask="url(#mask0_238_65)">
        <path fill-rule="evenodd" clip-rule="evenodd" d="M103.558 57.2272C99.6259 57.5789 95.6101 57.7608 91.5284 57.7608C66.9201 57.7608 44.7098 51.1516 28.6958 40.5449C12.7954 30.0134 3.14964 15.6606 3.00011 0H-2.28882e-05C0.149567 16.9793 10.5994 32.1572 27.0392 43.046C43.6097 54.0213 66.4144 60.7608 91.5284 60.7608C95.6048 60.7608 99.6204 60.5832 103.558 60.2388V57.2272Z" fill="#36200C"/>
        <circle cx="42.5299" cy="51.7185" r="28" transform="rotate(44.6545 42.5299 51.7185)" fill="#36200C" stroke="#FAEADA" stroke-width="3"/>
        <circle cx="42.5472" cy="51.5469" r="30" transform="rotate(44.6545 42.5472 51.5469)" stroke="#36200C" stroke-width="3"/>
        <path fill-rule="evenodd" clip-rule="evenodd" d="M37.9944 40.3563C35.2754 44.3278 34.8844 49.6633 37.4324 54.1228C39.9018 58.4448 44.4815 60.8064 49.1329 60.6516C48.1584 62.0259 46.8843 63.2083 45.3375 64.0921C39.4488 67.4566 31.8377 65.2181 28.3375 59.0921C24.8374 52.9661 26.7737 45.2725 32.6625 41.9079C34.3445 40.9469 36.1672 40.443 37.9944 40.3563Z" fill="#FAEADA"/>
        <path d="M49.7218 46.5356C53.1559 52.546 51.2422 60.0633 45.5037 63.3421C39.7652 66.6208 32.3174 64.4522 28.8833 58.4418C25.4493 52.4314 27.3629 44.9141 33.1014 41.6353C38.8399 38.3566 46.2877 40.5252 49.7218 46.5356Z" stroke="#FAEADA"/>
        <path d="M49 38.8438C51.7 38.8438 51.7 34.7188 52 33C52.3 34.7188 52.3 38.8438 55 38.8438C52.9 38.8438 52.2 42.2812 52 44C51.8 42.2812 51.1 38.8438 49 38.8438Z" fill="#FAEADA"/>
        <path d="M52 33L52.4926 32.914C52.4508 32.6747 52.243 32.5 52 32.5C51.757 32.5 51.5492 32.6747 51.5074 32.914L52 33ZM49 38.3438C48.7239 38.3438 48.5 38.5676 48.5 38.8438C48.5 39.1199 48.7239 39.3438 49 39.3438V38.3438ZM52 44L51.5034 44.0578C51.5327 44.3099 51.7462 44.5 52 44.5C52.2538 44.5 52.4673 44.3099 52.4966 44.0578L52 44ZM55 39.3438C55.2761 39.3438 55.5 39.1199 55.5 38.8438C55.5 38.5676 55.2761 38.3438 55 38.3438V39.3438ZM51.5074 32.914C51.4306 33.3544 51.3691 33.9737 51.2888 34.5716C51.2055 35.1925 51.0971 35.8379 50.9212 36.4223C50.744 37.0113 50.5097 37.4981 50.1994 37.832C49.9043 38.1495 49.5284 38.3438 49 38.3438V39.3438C49.8216 39.3438 50.4582 39.0224 50.9319 38.5128C51.3903 38.0195 51.681 37.3676 51.8788 36.7105C52.0779 36.0488 52.1945 35.3407 52.2799 34.7047C52.3684 34.0459 52.4194 33.505 52.4926 33.086L51.5074 32.914ZM49 39.3438C49.7257 39.3438 50.3046 39.9329 50.7533 40.9751C51.1873 41.9831 51.4054 43.2158 51.5034 44.0578L52.4966 43.9422C52.3946 43.0654 52.1627 41.72 51.6717 40.5796C51.1954 39.4734 50.3743 38.3438 49 38.3438V39.3438ZM52.4966 44.0578C52.5946 43.2158 52.8127 41.9831 53.2467 40.9751C53.6954 39.9329 54.2743 39.3438 55 39.3438V38.3438C53.6257 38.3438 52.8046 39.4734 52.3283 40.5796C51.8373 41.72 51.6054 43.0654 51.5034 43.9422L52.4966 44.0578ZM55 38.3438C54.4716 38.3438 54.0957 38.1495 53.8006 37.832C53.4903 37.4981 53.256 37.0113 53.0788 36.4223C52.9029 35.8379 52.7945 35.1925 52.7112 34.5716C52.6309 33.9737 52.5694 33.3544 52.4926 32.914L51.5074 33.086C51.5806 33.505 51.6316 34.0459 51.7201 34.7047C51.8055 35.3407 51.9221 36.0488 52.1212 36.7105C52.319 37.3676 52.6097 38.0195 53.0681 38.5128C53.5418 39.0224 54.1784 39.3438 55 39.3438V38.3438Z" fill="#FAEADA"/>
        <path d="M57 45.1875C58.8 45.1875 58.8 42.9375 59 42C59.2 42.9375 59.2 45.1875 61 45.1875C59.6 45.1875 59.1333 47.0625 59 48C58.8667 47.0625 58.4 45.1875 57 45.1875Z" fill="#FAEADA"/>
        <path d="M59 42L59.489 41.8957C59.4398 41.6649 59.2359 41.5 59 41.5C58.7641 41.5 58.5602 41.6649 58.511 41.8957L59 42ZM57 44.6875C56.7239 44.6875 56.5 44.9114 56.5 45.1875C56.5 45.4636 56.7239 45.6875 57 45.6875V44.6875ZM59 48L58.505 48.0704C58.54 48.3169 58.7511 48.5 59 48.5C59.2489 48.5 59.46 48.3169 59.495 48.0704L59 48ZM61 45.6875C61.2761 45.6875 61.5 45.4636 61.5 45.1875C61.5 44.9114 61.2761 44.6875 61 44.6875V45.6875ZM58.511 41.8957C58.4583 42.1429 58.4131 42.5065 58.3628 42.8126C58.3082 43.1458 58.2392 43.4778 58.1307 43.7727C58.0219 44.0687 57.8846 44.2953 57.7134 44.446C57.5533 44.5869 57.335 44.6875 57 44.6875V45.6875C57.565 45.6875 58.0217 45.5068 58.3741 45.1966C58.7154 44.8962 58.9281 44.5016 59.0693 44.1179C59.2108 43.7331 59.2918 43.3269 59.3497 42.9745C59.4119 42.595 59.4417 42.3259 59.489 42.1043L58.511 41.8957ZM57 45.6875C57.4291 45.6875 57.762 45.961 58.0325 46.475C58.3018 46.9867 58.4415 47.6242 58.505 48.0704L59.495 47.9296C59.4251 47.4383 59.2649 46.6695 58.9175 46.0093C58.5713 45.3515 57.9709 44.6875 57 44.6875V45.6875ZM59.495 48.0704C59.5585 47.6242 59.6982 46.9867 59.9675 46.475C60.238 45.961 60.5709 45.6875 61 45.6875V44.6875C60.0291 44.6875 59.4287 45.3515 59.0825 46.0093C58.7351 46.6695 58.5749 47.4383 58.505 47.9296L59.495 48.0704ZM61 44.6875C60.665 44.6875 60.4467 44.5869 60.2866 44.446C60.1154 44.2953 59.9781 44.0687 59.8693 43.7727C59.7608 43.4778 59.6918 43.1458 59.6372 42.8126C59.5869 42.5065 59.5417 42.1429 59.489 41.8957L58.511 42.1043C58.5583 42.3259 58.5881 42.595 58.6503 42.9745C58.7082 43.3269 58.7892 43.7331 58.9307 44.1179C59.0719 44.5016 59.2846 44.8962 59.6259 45.1966C59.9783 45.5068 60.435 45.6875 61 45.6875V44.6875Z" fill="#FAEADA"/>
    </g>
</svg>
