<svg width="104" height="83" viewBox="0 0 104 83" fill="none" xmlns="http://www.w3.org/2000/svg">
    <mask id="mask0_238_65" style="mask-type:alpha" maskUnits="userSpaceOnUse" x="0" y="0" width="104" height="83">
        <rect width="104" height="83" fill="#C4C4C4"/>
    </mask>
    <g mask="url(#mask0_238_65)">
        <path fill-rule="evenodd" clip-rule="evenodd" d="M103.558 57.2272C99.6259 57.5789 95.6101 57.7608 91.5284 57.7608C66.9201 57.7608 44.7098 51.1516 28.6958 40.5449C12.7954 30.0134 3.14964 15.6606 3.00011 0H-2.28882e-05C0.149567 16.9793 10.5994 32.1572 27.0392 43.046C43.6097 54.0213 66.4144 60.7608 91.5284 60.7608C95.6048 60.7608 99.6204 60.5832 103.558 60.2388V57.2272Z" fill="#36200C"/>
        <circle cx="42.5469" cy="51.5469" r="30" transform="rotate(44.6545 42.5469 51.5469)" fill="#FAEADA" stroke="#36200C" stroke-width="3"/>
        <path d="M57.6051 66.0333L48.6274 60.3371L51.7498 57.1586L57.6051 66.0333Z" fill="#36200C"/>
        <path d="M53.6562 69.197L46.2749 61.5444L50.0587 59.1918L53.6562 69.197Z" fill="#36200C"/>
        <path d="M48.9921 71.3563L43.6771 62.1478L47.917 60.7785L48.9921 71.3563Z" fill="#36200C"/>
        <path d="M43.9616 72.327L41.0051 62.114L45.4495 61.7993L43.9616 72.327Z" fill="#36200C"/>
        <path d="M38.8586 72.0694L38.4168 61.4463L42.8085 62.1981L38.8586 72.0694Z" fill="#36200C"/>
        <path d="M33.9443 70.5916L36.0846 60.1769L40.1641 61.9683L33.9443 70.5916Z" fill="#36200C"/>
        <path d="M29.5562 67.9909L34.105 58.3807L37.6434 61.0884L29.5562 67.9909Z" fill="#36200C"/>
        <path d="M25.8504 64.3399L32.6078 56.1311L35.3781 59.6207L25.8504 64.3399Z" fill="#36200C"/>
        <path d="M23.1765 59.973L31.7114 53.6326L33.5601 57.6865L23.1765 59.973Z" fill="#36200C"/>
        <path d="M21.6361 55.1095L31.4356 50.9844L32.2654 55.362L21.6361 55.1095Z" fill="#36200C"/>
        <path d="M21.3001 50.0212L31.7996 48.346L31.5641 52.7953L21.3001 50.0212Z" fill="#36200C"/>
        <path d="M22.1866 44.988L32.7819 45.8746L31.4883 50.1382L22.1866 44.988Z" fill="#36200C"/>
        <path d="M24.2618 40.3018L34.3295 43.7205L32.0447 47.5456L24.2618 40.3018Z" fill="#36200C"/>
        <path d="M27.4643 36.1914L36.3977 41.9568L33.2509 45.1111L27.4643 36.1914Z" fill="#36200C"/>
        <path d="M31.4133 33.0737L38.7361 40.7823L34.9345 43.106L31.4133 33.0737Z" fill="#36200C"/>
        <path d="M36.0739 30.9502L41.3207 40.1977L37.0708 41.5357L36.0739 30.9502Z" fill="#36200C"/>
        <path d="M41.102 30.0085L43.9841 40.2427L39.5375 40.5251L41.102 30.0085Z" fill="#36200C"/>
        <path d="M46.1889 30.2899L46.5529 40.916L42.1669 40.1321L46.1889 30.2899Z" fill="#36200C"/>
        <path d="M51.1451 31.8121L48.9267 42.2104L44.8607 40.3884L51.1451 31.8121Z" fill="#36200C"/>
        <path d="M55.5418 34.465L50.8826 44.022L47.3756 41.2737L55.5418 34.465Z" fill="#36200C"/>
        <path d="M59.1967 38.1231L52.3765 46.2797L49.6331 42.7689L59.1967 38.1231Z" fill="#36200C"/>
        <path d="M61.8361 42.5033L53.2539 48.7796L51.4357 44.7119L61.8361 42.5033Z" fill="#36200C"/>
        <path d="M63.3337 47.3273L53.5043 51.3806L52.7065 46.997L63.3337 47.3273Z" fill="#36200C"/>
        <path d="M63.6471 52.4237L53.1357 54.0225L53.4035 49.575L63.6471 52.4237Z" fill="#36200C"/>
        <path d="M62.7283 57.4763L52.1399 56.5114L53.465 52.2574L62.7283 57.4763Z" fill="#36200C"/>
        <path d="M60.6124 62.1704L50.571 58.6752L52.8848 54.8676L60.6124 62.1704Z" fill="#36200C"/>
        <path d="M49.407 57.8497C45.6707 61.6532 39.5586 61.7076 35.7551 57.9713C31.9517 54.235 31.8973 48.1229 35.6335 44.3195C39.3698 40.516 45.482 40.4616 49.2854 44.1979C53.0888 47.9342 53.1433 54.0463 49.407 57.8497Z" fill="#36200C"/>
        <path d="M46.1764 49.0913L40.4801 58.069L37.3016 54.9466L46.1764 49.0913Z" fill="#36200C"/>
    </g>
</svg>
