<?xml version="1.0" standalone="no"?>
<!DOCTYPE svg PUBLIC "-//W3C//DTD SVG 20010904//EN"
 "http://www.w3.org/TR/2001/REC-SVG-20010904/DTD/svg10.dtd">
<svg version="1.0" xmlns="http://www.w3.org/2000/svg"
 width="700.000000pt" height="700.000000pt" viewBox="0 0 700.000000 700.000000"
 preserveAspectRatio="xMidYMid meet">
<metadata>
Created by potrace 1.14, written by Peter Selinger 2001-2017
</metadata>
<g transform="translate(0.000000,700.000000) scale(0.100000,-0.100000)"
fill="#000000" stroke="none">
<path d="M3250 6973 c-499 -29 -1037 -189 -1475 -438 -475 -269 -875 -642
-1182 -1100 -564 -843 -721 -1930 -421 -2910 268 -876 880 -1613 1690 -2040
378 -198 782 -322 1228 -377 158 -20 632 -16 795 5 783 104 1468 440 2015 987
782 781 1136 1866 969 2968 -108 713 -452 1385 -975 1908 -694 693 -1653 1055
-2644 997z m475 -333 c621 -53 1196 -282 1686 -671 135 -107 384 -356 488
-488 313 -396 523 -842 620 -1322 47 -229 55 -323 56 -624 0 -337 -16 -476
-90 -770 -192 -765 -681 -1439 -1354 -1865 -367 -233 -777 -384 -1216 -451
-180 -27 -540 -37 -722 -20 -756 71 -1427 390 -1954 928 -571 584 -889 1361
-889 2173 1 1179 655 2246 1703 2781 515 262 1100 377 1672 329z"/>
<path d="M3384 5448 l-89 -421 -193 389 -192 389 5 -125 c14 -342 26 -712 22
-716 -2 -2 -125 139 -273 315 -148 175 -270 318 -271 317 -2 -2 49 -182 112
-401 63 -219 113 -400 112 -402 -2 -2 -154 105 -336 238 -183 132 -334 239
-336 237 -2 -2 88 -163 200 -358 112 -195 201 -356 197 -357 -4 -2 -178 67
-386 152 -209 85 -381 154 -382 152 -1 -1 126 -137 283 -302 157 -164 281
-301 275 -303 -9 -3 -737 101 -790 113 -13 3 -21 2 -19 -2 3 -5 161 -107 350
-228 249 -159 341 -222 329 -227 -9 -4 -192 -23 -407 -43 -214 -20 -394 -38
-400 -39 -14 -5 -26 0 393 -141 206 -69 380 -128 387 -133 8 -4 -142 -62 -378
-146 -216 -77 -395 -142 -399 -145 -4 -4 155 -19 355 -35 199 -15 388 -30 420
-33 l59 -6 -354 -233 c-194 -129 -348 -234 -341 -234 6 0 192 29 414 65 221
36 403 64 404 63 2 -2 -123 -139 -277 -306 -154 -167 -278 -305 -276 -307 2
-3 176 69 386 159 304 130 379 160 370 142 -9 -18 -381 -695 -396 -721 -3 -6
1 -5 9 1 8 6 161 122 342 258 180 136 327 243 327 239 0 -4 -49 -189 -109
-410 -59 -222 -107 -403 -106 -403 2 0 110 132 241 293 131 160 251 308 267
327 l30 34 -7 -424 c-4 -233 -5 -422 -3 -420 3 3 82 169 176 370 94 200 175
368 179 372 4 4 48 -172 97 -392 48 -219 91 -397 95 -395 4 2 42 180 86 394
43 215 82 387 85 383 4 -4 84 -168 179 -365 95 -196 175 -355 177 -353 2 2 -1
174 -7 382 -7 209 -10 395 -8 414 3 34 9 27 267 -283 145 -174 266 -315 268
-313 2 2 -46 182 -107 401 -61 218 -110 398 -108 400 2 1 154 -109 338 -245
184 -136 336 -246 338 -245 2 2 -84 157 -191 346 -246 436 -222 391 -195 380
13 -5 187 -77 387 -160 200 -84 365 -150 366 -149 2 2 -125 138 -280 303 -156
165 -282 301 -281 302 2 2 187 -26 412 -61 225 -35 410 -63 411 -62 1 1 -157
105 -352 231 -194 127 -350 231 -347 232 4 1 192 18 417 38 226 20 411 38 413
40 3 2 -49 21 -571 201 -213 74 -226 80 -200 91 15 6 196 69 401 140 318 109
368 129 340 134 -18 4 -202 21 -408 39 -206 18 -378 36 -383 40 -4 3 149 107
339 230 190 124 342 226 338 227 -5 1 -193 -26 -419 -61 -225 -35 -411 -63
-412 -62 0 0 107 116 238 256 313 333 348 373 318 361 -13 -5 -186 -77 -383
-160 -198 -83 -361 -149 -364 -147 -2 2 79 152 181 333 189 337 220 393 215
393 -2 0 -154 -112 -338 -249 -184 -136 -336 -248 -337 -247 -1 1 47 181 108
400 61 219 108 400 106 402 -2 2 -123 -140 -268 -315 -145 -176 -265 -318
-266 -317 -2 2 2 176 8 387 6 211 9 398 7 416 -2 26 -33 -32 -183 -343 -99
-207 -181 -372 -182 -367 -1 4 -41 188 -88 408 -47 219 -87 400 -89 402 -1 1
-42 -187 -92 -419z m369 -739 c379 -90 684 -356 828 -724 45 -113 54 -149 70
-278 19 -146 19 -149 0 -300 -18 -132 -27 -169 -69 -278 -139 -356 -447 -630
-812 -718 -106 -27 -144 -31 -284 -33 -152 -2 -168 0 -288 29 -374 94 -669
349 -816 707 -47 116 -56 148 -74 281 -21 146 -21 153 -4 298 15 130 23 163
67 280 71 187 164 324 315 461 154 139 291 214 489 267 132 35 149 37 293 38
138 1 166 -2 285 -30z"/>
<path d="M3355 4609 c-153 -20 -330 -88 -466 -179 -82 -56 -213 -187 -268
-269 -144 -212 -209 -466 -182 -705 16 -142 42 -231 106 -361 133 -272 357
-459 660 -552 85 -25 101 -27 280 -27 163 0 201 3 267 21 376 105 656 385 760
760 19 67 22 104 22 263 0 158 -3 196 -21 262 -87 312 -284 551 -567 688 -188
91 -387 124 -591 99z"/>
</g>
</svg>
